<svg id="SvgjsSvg1006" width="1010" height="650" xmlns="http://www.w3.org/2000/svg" version="1.1" xmlns:xlink="http://www.w3.org/1999/xlink" xmlns:svgjs="http://svgjs.com/svgjs">
	<style>
		.main-fill {
			fill: #c9d1d9;
		}

		.main-stroke {
			stroke: #c9d1d9;
		}

		.bind-host {
			fill: #ff0000;
		}

		.bind-port {
			fill: #00ff00;
		}

		.proxy-host {
			fill: #ff8000;
		}

		.proxy-port {
			fill: #ff00ff;
		}

		.dst-port {
			fill: #4040ff;
		}
	</style>
	<symbol id="globe" viewBox="0 0 75 75">
		<path fill="#3085AA" d="M37.5,0C58.206,0,75,16.791,75,37.5C75,58.206,58.206,75,37.5,75C16.791,75,0,58.206,0,37.5C0,16.791,16.791,0,37.5,0z" />
		<path fill="#9CAE38"
			d="M69.706,54.162c-0.234,1.333-2.758,6.228-2.838,6.547C71.84,54.237,75,46.256,75,37.339c0-11.283-5.053-21.548-13.104-28.495c-0.402,0.234-1.269,0.234-2.456-0.239c-2.758-1.262-5.837-1.661-6.229-1.262c-0.475,0.549-0.475,2.369,2.051,2.923c2.527,0.554,1.904,3.156,3.715,2.606c1.731-0.402,2.214-1.741,2.214-1.741s3.382,2.446,0.544,2.839c-2.839,0.401-6.24,0.16-8.757-2.051c-2.294-2.208-5.848-3.234-8.453-2.842c-2.054,0.791-6.24,2.999-3.785,4.66c-0.563,0-1.268,0.16-1.738,0.393c-4.34,1.741-7.269,1.107-8.769,3.553c-1.5,2.446-3.784,6.16-2.603,7.897c1.264,1.735,3.003,5.603,3.156,6.707c0.161,1.107,0.946,2.449,4.348,1.107c3.23-1.338,6.149,3.393,5.043,5.608c-1.25,2.202-1.49,6.711-1.731,7.898c-0.241,1.256-4.736,1.256-4.66,4.649c0.161,3.401-1.338,6.789-0.946,8.765c0.393,1.742,2.446,3.796,6.552,2.206c4.105-1.651,5.615-2.839,7.347-3.784c1.65-0.946,3.704,0.704,4.347-0.785c0.705-1.51,1.101-4.739,3.383-5.053c2.295-0.241,4.509-2.838,6.723-2.838c2.199,0,5.436-1.671,3.543-2.617c-1.731-0.945-2.597-1.65-2.758-3.16c-0.161-1.328-0.241-6.703-0.241-6.703l0.241-3.16c0,0,1.731-2.607,2.053,0.791c0.24,3.396-0.71,9.717-0.241,9.943c0.481,0.236,5.838,1.665,5.838,0.156c0-1.49-2.437-5.053-2.28-6.383c0.146-1.347,1.254-2.767,2.28-1.267c1.268,1.489,0.563,4.106,0.946,5.052c0.241,0.946,1.509,1.893,0.95,3.945C70.652,48.39,69.947,52.737,69.706,54.162z M63.949,28.341c-0.705,0.946-2.838,2.607-4.106,0.554c-1.349-2.053-3.945-3.16-5.294-3.945c-1.337-0.714-2.438-1.661-2.597-3.241c-0.161-1.732-2.053-2.285-2.455-2.999c-0.24-0.393-2.214-2.446-4.65-3.787c3.237,0.234,3.704-1.658,5.214-0.4c1.73,1.349,2.838,5.454,6.228,4.901c3.394-0.554,3.955,0.151,3.233,1.258c-0.544,1.107,0.402,2.847,1.268,3.16C61.654,24.003,64.734,27.396,63.949,28.341z" />
		<path fill="#9CAE38"
			d="M11.997,27.234c-1.339-1.339-0.946-5.133-1.651-7.498c-0.714-2.213-3.553-0.393-6.4,1.339c-0.155,0-0.155,0.161-0.155,0.161c-0.549,1.107-1.103,2.293-1.501,3.392c0,1.501,0.398,3.003,0.237,3.955c-0.237,1.65,2.214,1.025,2.214,1.025s-0.554,1.34-1.349,2.051c-0.554,0.396-1.731,1.1-3.154,1.895C0.161,34.894,0,36.236,0,37.661c0,1.892,0.161,3.704,0.393,5.596c0.714,1.269,1.347,2.214,1.896,2.456c1.501,1.268,2.451,5.213,2.603,5.998c0.161,0.705,2.768,7.105,3.713,9.704c0.161,0.239,0.393,0.4,0.554,0.723c0.161-0.723,0.235-2.214-0.714-4.106c-1.258-2.616,0.241-5.294,0.553-6.799c0.161-1.494,0.714-5.199,1.5-7.734c0.795-2.52,2.768-4.267,4.74-5.759c2.053-1.502,1.736-2.845,2.053-5.21C17.45,29.841,13.345,28.656,11.997,27.234z" />
	</symbol>
	<defs id="SvgjsDefs1007">
		<marker id="SvgjsMarker1073" markerWidth="14" markerHeight="10" refX="10" refY="5" viewBox="0 0 14 10" orient="auto" markerUnits="userSpaceOnUse" stroke-dasharray="0,0">
			<path id="SvgjsPath1074" d="M0,0 L14,5 L0,10 L0,0" class="main-fill main-stroke" stroke-width="1" />
		</marker>
		<pattern id="SvgjsPattern1077" x="0" y="0" width="75" height="75" patternUnits="userSpaceOnUse">
			<use href="#globe" width="75" height="75" x="0" y="0" />
		</pattern>
		<marker id="SvgjsMarker1092" markerWidth="14" markerHeight="10" refX="10" refY="5" viewBox="0 0 14 10" orient="auto" markerUnits="userSpaceOnUse" stroke-dasharray="0,0">
			<path id="SvgjsPath1093" d="M0,0 L14,5 L0,10 L0,0" class="main-fill main-stroke" stroke-width="1" />
		</marker>
		<marker id="SvgjsMarker1105" markerWidth="14" markerHeight="10" refX="10" refY="5" viewBox="0 0 14 10" orient="auto" markerUnits="userSpaceOnUse" stroke-dasharray="0,0">
			<path id="SvgjsPath1106" d="M0,0 L14,5 L0,10 L0,0" class="main-fill main-stroke" stroke-width="1" />
		</marker>
		<marker id="SvgjsMarker1109" markerWidth="14" markerHeight="10" refX="10" refY="5" viewBox="0 0 14 10" orient="auto" markerUnits="userSpaceOnUse" stroke-dasharray="0,0">
			<path id="SvgjsPath1110" d="M0,0 L14,5 L0,10 L0,0" class="main-fill main-stroke" stroke-width="1" />
		</marker>
		<marker id="SvgjsMarker1113" markerWidth="14" markerHeight="10" refX="10" refY="5" viewBox="0 0 14 10" orient="auto" markerUnits="userSpaceOnUse" stroke-dasharray="0,0">
			<path id="SvgjsPath1114" d="M0,0 L14,5 L0,10 L0,0" class="main-fill main-stroke" stroke-width="1" />
		</marker>
		<marker id="SvgjsMarker1180" markerWidth="14" markerHeight="10" refX="10" refY="5" viewBox="0 0 14 10" orient="auto" markerUnits="userSpaceOnUse" stroke-dasharray="0,0">
			<path id="SvgjsPath1181" d="M0,0 L14,5 L0,10 L0,0" class="main-fill main-stroke" stroke-width="1" />
		</marker>
		<pattern id="SvgjsPattern1184" x="0" y="0" width="75" height="75" patternUnits="userSpaceOnUse">
			<use href="#globe" width="75" height="75" x="0" y="0" />
		</pattern>
		<marker id="SvgjsMarker1199" markerWidth="14" markerHeight="10" refX="10" refY="5" viewBox="0 0 14 10" orient="auto" markerUnits="userSpaceOnUse" stroke-dasharray="0,0">
			<path id="SvgjsPath1200" d="M0,0 L14,5 L0,10 L0,0" class="main-fill main-stroke" stroke-width="1" />
		</marker>
		<marker id="SvgjsMarker1212" markerWidth="14" markerHeight="10" refX="10" refY="5" viewBox="0 0 14 10" orient="auto" markerUnits="userSpaceOnUse" stroke-dasharray="0,0">
			<path id="SvgjsPath1213" d="M0,0 L14,5 L0,10 L0,0" class="main-fill main-stroke" stroke-width="1" />
		</marker>
		<marker id="SvgjsMarker1216" markerWidth="14" markerHeight="10" refX="10" refY="5" viewBox="0 0 14 10" orient="auto" markerUnits="userSpaceOnUse" stroke-dasharray="0,0">
			<path id="SvgjsPath1217" d="M0,0 L14,5 L0,10 L0,0" class="main-fill main-stroke" stroke-width="1" />
		</marker>
		<marker id="SvgjsMarker1220" markerWidth="14" markerHeight="10" refX="10" refY="5" viewBox="0 0 14 10" orient="auto" markerUnits="userSpaceOnUse" stroke-dasharray="0,0">
			<path id="SvgjsPath1221" d="M0,0 L14,5 L0,10 L0,0" class="main-fill main-stroke" stroke-width="1" />
		</marker>
	</defs>
	<g id="SvgjsG1008" transform="translate(25,375)">
		<path id="SvgjsPath1009" d="M 0 0L 530 0L 530 250L 0 250Z" class="main-stroke" stroke-width="2" fill="none" />
		<g id="SvgjsG1010">
			<text id="SvgjsText1011" text-anchor="middle" font-size="20px" width="510px" class="main-fill" font-weight="400" align="top" lineHeight="300%" anchor="middle" size="20px" weight="400" font-style="" opacity="1" y="-23"
				transform="rotate(0)">
				<tspan id="SvgjsTspan1012" dy="60" x="265">
					<tspan id="SvgjsTspan1013" style="text-decoration:;">192.168.1.2</tspan>
				</tspan>
			</text>
		</g>
	</g>
	<g id="SvgjsG1014" transform="translate(35,507)">
		<path id="SvgjsPath1015" d="M 0 0L 100 0L 100 60L 0 60Z" class="main-stroke" stroke-width="2" fill="none" />
		<g id="SvgjsG1016"><text id="SvgjsText1017" text-anchor="middle" font-size="13px" width="80px" class="main-fill" font-weight="400" align="middle" lineHeight="125%" anchor="middle" size="13px" weight="400" font-style="" opacity="1" y="19.375"
				transform="rotate(0)">
				<tspan id="SvgjsTspan1018" dy="16" x="50">
					<tspan id="SvgjsTspan1019" style="text-decoration:;">browser</tspan>
				</tspan>
			</text></g>
	</g>
	<g id="SvgjsG1020" transform="translate(155,425)">
		<path id="SvgjsPath1021" d="M 0 0L 200 0L 200 60L 0 60Z" class="main-stroke" stroke-width="2" fill="none" />
		<g id="SvgjsG1022"><text id="SvgjsText1023" text-anchor="start" font-size="13px" width="180px" class="main-fill" font-weight="400" align="middle" lineHeight="125%" anchor="start" size="13px" weight="400" font-style="" opacity="1" y="2.875"
				transform="rotate(0)">
				<tspan id="SvgjsTspan1024" dy="16" x="10">
					<tspan id="SvgjsTspan1025" style="text-decoration:;">hosts file</tspan>
				</tspan>
				<tspan id="SvgjsTspan1026" dy="16" x="10">
					<tspan id="SvgjsTspan1027" style="text-decoration:;"> </tspan>
				</tspan>
				<tspan id="SvgjsTspan1028" dy="16" x="10">
					<tspan id="SvgjsTspan1029" style="text-decoration:;font-size: inherit;font-weight: bold;" class="bind-host">127.0.0.1</tspan>
					<tspan id="SvgjsTspan1030" style="text-decoration:;font-size: inherit;"> www.google.com</tspan>
				</tspan>
			</text></g>
	</g>
	<g id="SvgjsG1031" transform="translate(375,475)">
		<path id="SvgjsPath1032" d="M 0 0L 170 0L 170 120L 0 120Z" class="main-stroke" stroke-width="2" fill="none" />
		<g id="SvgjsG1033"><text id="SvgjsText1034" text-anchor="start" font-size="13px" width="150px" class="main-fill" font-weight="400" align="middle" lineHeight="125%" anchor="start" size="13px" weight="400" font-style="" opacity="1" y="0.375"
				transform="rotate(0)">
				<tspan id="SvgjsTspan1035" dy="16" x="10">
					<tspan id="SvgjsTspan1036" style="text-decoration:;">SNI Proxy</tspan>
				</tspan>
				<tspan id="SvgjsTspan1037" dy="16" x="10">
					<tspan id="SvgjsTspan1038" style="text-decoration:;"> </tspan>
				</tspan>
				<tspan id="SvgjsTspan1039" dy="16" x="10">
					<tspan id="SvgjsTspan1040" style="text-decoration:;">bindHost: </tspan>
					<tspan id="SvgjsTspan1041" style="text-decoration:;font-weight: bold;" class="bind-host">127.0.0.1</tspan>
				</tspan>
				<tspan id="SvgjsTspan1042" dy="16" x="10">
					<tspan id="SvgjsTspan1043" style="text-decoration:;">bindPort: </tspan>
					<tspan id="SvgjsTspan1044" style="text-decoration:;font-weight: bold;" class="bind-port">443</tspan>
				</tspan>
				<tspan id="SvgjsTspan1045" dy="16" x="10">
					<tspan id="SvgjsTspan1046" style="text-decoration:;">proxyHost: </tspan>
					<tspan id="SvgjsTspan1047" style="text-decoration:;font-weight: bold;" class="proxy-host">192.168.1.3</tspan>
				</tspan>
				<tspan id="SvgjsTspan1048" dy="16" x="10">
					<tspan id="SvgjsTspan1049" style="text-decoration:;">proxyPort: </tspan>
					<tspan id="SvgjsTspan1050" style="text-decoration:;font-weight: bold;" class="proxy-port">10809</tspan>
				</tspan>
				<tspan id="SvgjsTspan1051" dy="16" x="10">
					<tspan id="SvgjsTspan1052" style="text-decoration:;">dstPort: </tspan>
					<tspan id="SvgjsTspan1053" style="text-decoration:;font-weight: bold;" class="dst-port">443</tspan>
				</tspan>
			</text></g>
	</g>
	<g id="SvgjsG1054" transform="translate(585,375)">
		<path id="SvgjsPath1055" d="M 0 0L 220 0L 220 250L 0 250Z" class="main-stroke" stroke-width="2" fill="none" />
		<g id="SvgjsG1056"><text id="SvgjsText1057" text-anchor="middle" font-size="20px" width="200px" class="main-fill" font-weight="400" align="top" lineHeight="300%" anchor="middle" size="20px" weight="400" font-style="" opacity="1" y="-23"
				transform="rotate(0)">
				<tspan id="SvgjsTspan1058" dy="60" x="110">
					<tspan id="SvgjsTspan1059" style="text-decoration:;font-weight: bold;" class="proxy-host">192.168.1.3</tspan>
				</tspan>
			</text></g>
	</g>
	<g id="SvgjsG1060" transform="translate(615,505)">
		<path id="SvgjsPath1061" d="M 0 0L 160 0L 160 60L 0 60Z" class="main-stroke" stroke-width="2" fill="none" />
		<g id="SvgjsG1062"><text id="SvgjsText1063" text-anchor="start" font-size="13px" width="140px" class="main-fill" font-weight="400" align="middle" lineHeight="125%" anchor="start" size="13px" weight="400" font-style="" opacity="1" y="2.875"
				transform="rotate(0)">
				<tspan id="SvgjsTspan1064" dy="16" x="10">
					<tspan id="SvgjsTspan1065" style="text-decoration:;">HTTP Proxy Server</tspan>
				</tspan>
				<tspan id="SvgjsTspan1066" dy="16" x="10">
					<tspan id="SvgjsTspan1067" style="text-decoration:;"> </tspan>
				</tspan>
				<tspan id="SvgjsTspan1068" dy="16" x="10">
					<tspan id="SvgjsTspan1069" style="text-decoration:;">listen port: </tspan>
					<tspan id="SvgjsTspan1070" style="text-decoration:;font-weight: bold;" class="proxy-port">10809</tspan>
				</tspan>
			</text></g>
	</g>
	<g id="SvgjsG1071">
		<path id="SvgjsPath1072" d="M546 535L580 535L580 535L611.4 535" class="main-stroke" stroke-width="2" fill="none" marker-end="url(#SvgjsMarker1073)" />
	</g>
	<g id="SvgjsG1075" transform="translate(867.5,497.5)">
		<path id="SvgjsPath1076" d="M 0 0L 75 0L 75 75L 0 75Z" stroke="none" fill="url(#SvgjsPattern1077)" opacity="1" />
		<g id="SvgjsG1079"><text id="SvgjsText1080" text-anchor="middle" font-size="13px" width="115px" class="main-fill" font-weight="400" align="middle" lineHeight="125%" anchor="middle" size="13px" weight="400" font-style="" opacity="1" y="79.375"
				transform="rotate(0)">
				<tspan id="SvgjsTspan1081" dy="16" x="37.5">
					<tspan id="SvgjsTspan1082" style="text-decoration:;">Internet</tspan>
				</tspan>
			</text></g>
	</g>
	<g id="SvgjsG1083" transform="translate(150,535)">
		<path id="SvgjsPath1084" d="M 0 0L 210 0L 210 60L 0 60Z" stroke="none" fill="none" />
		<g id="SvgjsG1085"><text id="SvgjsText1086" text-anchor="middle" font-size="13px" width="190px" class="main-fill" font-weight="400" align="middle" lineHeight="125%" anchor="middle" size="13px" weight="400" font-style="" opacity="1" y="19.375"
				transform="rotate(0)">
				<tspan id="SvgjsTspan1087" dy="16" x="105">
					<tspan id="SvgjsTspan1088" style="text-decoration:;">https://www.google.com:</tspan>
					<tspan id="SvgjsTspan1089" style="text-decoration:;font-weight: bold;" class="bind-port">443</tspan>
				</tspan>
			</text></g>
	</g>
	<g id="SvgjsG1090">
		<path id="SvgjsPath1091" d="M135 535.2857142857142L254.5 535.2857142857142L254.5 535L371.4 535" class="main-stroke" stroke-width="2" fill="none" marker-end="url(#SvgjsMarker1092)" />
	</g>
	<g id="SvgjsG1094" transform="translate(825,375)">
		<path id="SvgjsPath1095" d="M 0 0L 160 0L 160 70L 0 70Z" class="main-stroke" stroke-width="2" fill="none" />
		<g id="SvgjsG1096"><text id="SvgjsText1097" text-anchor="start" font-size="13px" width="140px" class="main-fill" font-weight="400" align="middle" lineHeight="125%" anchor="start" size="13px" weight="400" font-style="" opacity="1" y="15.875"
				transform="rotate(0)">
				<tspan id="SvgjsTspan1098" dy="16" x="10">
					<tspan id="SvgjsTspan1099" style="text-decoration:;">www.google.com</tspan>
				</tspan>
				<tspan id="SvgjsTspan1100" dy="16" x="10">
					<tspan id="SvgjsTspan1101" style="text-decoration:;">destination port: </tspan>
					<tspan id="SvgjsTspan1102" style="text-decoration:;font-weight: bold;" class="dst-port">443</tspan>
				</tspan>
			</text></g>
	</g>
	<g id="SvgjsG1103">
		<path id="SvgjsPath1104" d="M776 535L821.25 535L821.25 535L865 535" class="main-stroke" stroke-width="2" fill="none" marker-end="url(#SvgjsMarker1105)" />
	</g>
	<g id="SvgjsG1107">
		<path id="SvgjsPath1108" d="M905 497.5L905 471.25L905 471.25L905 448.6" class="main-stroke" stroke-width="2" fill="none" marker-end="url(#SvgjsMarker1109)" />
	</g>
	<g id="SvgjsG1111">
		<path id="SvgjsPath1112" d="M255 486L255 510L255 510L255 532.4" class="main-stroke" stroke-width="2" fill="none" marker-end="url(#SvgjsMarker1113)" />
	</g>
	<g id="SvgjsG1115" transform="translate(25,25)">
		<path id="SvgjsPath1116" d="M 0 0L 530 0L 530 250L 0 250Z" class="main-stroke" stroke-width="2" fill="none" />
		<g id="SvgjsG1117"><text id="SvgjsText1118" text-anchor="middle" font-size="20px" width="510px" class="main-fill" font-weight="400" align="top" lineHeight="300%" anchor="middle" size="20px" weight="400" font-style="" opacity="1" y="-23"
				transform="rotate(0)">
				<tspan id="SvgjsTspan1119" dy="60" x="265">
					<tspan id="SvgjsTspan1120" style="text-decoration:;">192.168.1.2</tspan>
				</tspan>
			</text></g>
	</g>
	<g id="SvgjsG1121" transform="translate(35,157)">
		<path id="SvgjsPath1122" d="M 0 0L 100 0L 100 60L 0 60Z" class="main-stroke" stroke-width="2" fill="none" />
		<g id="SvgjsG1123"><text id="SvgjsText1124" text-anchor="middle" font-size="13px" width="80px" class="main-fill" font-weight="400" align="middle" lineHeight="125%" anchor="middle" size="13px" weight="400" font-style="" opacity="1" y="19.375"
				transform="rotate(0)">
				<tspan id="SvgjsTspan1125" dy="16" x="50">
					<tspan id="SvgjsTspan1126" style="text-decoration:;">浏览器</tspan>
				</tspan>
			</text></g>
	</g>
	<g id="SvgjsG1127" transform="translate(155,75)">
		<path id="SvgjsPath1128" d="M 0 0L 200 0L 200 60L 0 60Z" class="main-stroke" stroke-width="2" fill="none" />
		<g id="SvgjsG1129"><text id="SvgjsText1130" text-anchor="start" font-size="13px" width="180px" class="main-fill" font-weight="400" align="middle" lineHeight="125%" anchor="start" size="13px" weight="400" font-style="" opacity="1" y="2.875"
				transform="rotate(0)">
				<tspan id="SvgjsTspan1131" dy="16" x="10">
					<tspan id="SvgjsTspan1132" style="text-decoration:;">hosts文件</tspan>
				</tspan>
				<tspan id="SvgjsTspan1133" dy="16" x="10">
					<tspan id="SvgjsTspan1134" style="text-decoration:;"> </tspan>
				</tspan>
				<tspan id="SvgjsTspan1135" dy="16" x="10">
					<tspan id="SvgjsTspan1136" style="text-decoration:;font-size: inherit;font-weight: bold;" class="bind-host">127.0.0.1</tspan>
					<tspan id="SvgjsTspan1137" style="text-decoration:;font-size: inherit;"> www.google.com</tspan>
				</tspan>
			</text></g>
	</g>
	<g id="SvgjsG1138" transform="translate(375,125)">
		<path id="SvgjsPath1139" d="M 0 0L 170 0L 170 120L 0 120Z" class="main-stroke" stroke-width="2" fill="none" />
		<g id="SvgjsG1140"><text id="SvgjsText1141" text-anchor="start" font-size="13px" width="150px" class="main-fill" font-weight="400" align="middle" lineHeight="125%" anchor="start" size="13px" weight="400" font-style="" opacity="1" y="0.375"
				transform="rotate(0)">
				<tspan id="SvgjsTspan1142" dy="16" x="10">
					<tspan id="SvgjsTspan1143" style="text-decoration:;">SNI Proxy</tspan>
				</tspan>
				<tspan id="SvgjsTspan1144" dy="16" x="10">
					<tspan id="SvgjsTspan1145" style="text-decoration:;"> </tspan>
				</tspan>
				<tspan id="SvgjsTspan1146" dy="16" x="10">
					<tspan id="SvgjsTspan1147" style="text-decoration:;">bindHost: </tspan>
					<tspan id="SvgjsTspan1148" style="text-decoration:;font-weight: bold;" class="bind-host">127.0.0.1</tspan>
				</tspan>
				<tspan id="SvgjsTspan1149" dy="16" x="10">
					<tspan id="SvgjsTspan1150" style="text-decoration:;">bindPort: </tspan>
					<tspan id="SvgjsTspan1151" style="text-decoration:;font-weight: bold;" class="bind-port">443</tspan>
				</tspan>
				<tspan id="SvgjsTspan1152" dy="16" x="10">
					<tspan id="SvgjsTspan1153" style="text-decoration:;">proxyHost: </tspan>
					<tspan id="SvgjsTspan1154" style="text-decoration:;font-weight: bold;" class="proxy-host">192.168.1.3</tspan>
				</tspan>
				<tspan id="SvgjsTspan1155" dy="16" x="10">
					<tspan id="SvgjsTspan1156" style="text-decoration:;">proxyPort: </tspan>
					<tspan id="SvgjsTspan1157" style="text-decoration:;font-weight: bold;" class="proxy-port">10809</tspan>
				</tspan>
				<tspan id="SvgjsTspan1158" dy="16" x="10">
					<tspan id="SvgjsTspan1159" style="text-decoration:;">dstPort: </tspan>
					<tspan id="SvgjsTspan1160" style="text-decoration:;font-weight: bold;" class="dst-port">443</tspan>
				</tspan>
			</text></g>
	</g>
	<g id="SvgjsG1161" transform="translate(585,25)">
		<path id="SvgjsPath1162" d="M 0 0L 220 0L 220 250L 0 250Z" class="main-stroke" stroke-width="2" fill="none" />
		<g id="SvgjsG1163"><text id="SvgjsText1164" text-anchor="middle" font-size="20px" width="200px" class="main-fill" font-weight="400" align="top" lineHeight="300%" anchor="middle" size="20px" weight="400" font-style="" opacity="1" y="-23"
				transform="rotate(0)">
				<tspan id="SvgjsTspan1165" dy="60" x="110">
					<tspan id="SvgjsTspan1166" style="text-decoration:;font-weight: bold;" class="proxy-host">192.168.1.3</tspan>
				</tspan>
			</text></g>
	</g>
	<g id="SvgjsG1167" transform="translate(615,155)">
		<path id="SvgjsPath1168" d="M 0 0L 160 0L 160 60L 0 60Z" class="main-stroke" stroke-width="2" fill="none" />
		<g id="SvgjsG1169"><text id="SvgjsText1170" text-anchor="start" font-size="13px" width="140px" class="main-fill" font-weight="400" align="middle" lineHeight="125%" anchor="start" size="13px" weight="400" font-style="" opacity="1" y="2.875"
				transform="rotate(0)">
				<tspan id="SvgjsTspan1171" dy="16" x="10">
					<tspan id="SvgjsTspan1172" style="text-decoration:;">HTTP代理服务器</tspan>
				</tspan>
				<tspan id="SvgjsTspan1173" dy="16" x="10">
					<tspan id="SvgjsTspan1174" style="text-decoration:;"> </tspan>
				</tspan>
				<tspan id="SvgjsTspan1175" dy="16" x="10">
					<tspan id="SvgjsTspan1176" style="text-decoration:;">监听端口: </tspan>
					<tspan id="SvgjsTspan1177" style="text-decoration:;font-weight: bold;" class="proxy-port">10809</tspan>
				</tspan>
			</text></g>
	</g>
	<g id="SvgjsG1178">
		<path id="SvgjsPath1179" d="M546 185L580 185L580 185L611.4 185" class="main-stroke" stroke-width="2" fill="none" marker-end="url(#SvgjsMarker1180)" />
	</g>
	<g id="SvgjsG1182" transform="translate(867.5,147)">
		<path id="SvgjsPath1183" d="M 0 0L 75 0L 75 75L 0 75Z" stroke="none" fill="url(#SvgjsPattern1184)" opacity="1" />
		<g id="SvgjsG1186"><text id="SvgjsText1187" text-anchor="middle" font-size="13px" width="115px" class="main-fill" font-weight="400" align="middle" lineHeight="125%" anchor="middle" size="13px" weight="400" font-style="" opacity="1" y="79.375"
				transform="rotate(0)">
				<tspan id="SvgjsTspan1188" dy="16" x="37.5">
					<tspan id="SvgjsTspan1189" style="text-decoration:;">互联网</tspan>
				</tspan>
			</text></g>
	</g>
	<g id="SvgjsG1190" transform="translate(150,185)">
		<path id="SvgjsPath1191" d="M 0 0L 210 0L 210 60L 0 60Z" stroke="none" fill="none" />
		<g id="SvgjsG1192"><text id="SvgjsText1193" text-anchor="middle" font-size="13px" width="190px" class="main-fill" font-weight="400" align="middle" lineHeight="125%" anchor="middle" size="13px" weight="400" font-style="" opacity="1" y="19.375"
				transform="rotate(0)">
				<tspan id="SvgjsTspan1194" dy="16" x="105">
					<tspan id="SvgjsTspan1195" style="text-decoration:;">https://www.google.com:</tspan>
					<tspan id="SvgjsTspan1196" style="text-decoration:;font-weight: bold;" class="bind-port">443</tspan>
				</tspan>
			</text></g>
	</g>
	<g id="SvgjsG1197">
		<path id="SvgjsPath1198" d="M135 185.28571428571422L254.5 185.28571428571422L254.5 185L371.4 185" class="main-stroke" stroke-width="2" fill="none" marker-end="url(#SvgjsMarker1199)" />
	</g>
	<g id="SvgjsG1201" transform="translate(825,25)">
		<path id="SvgjsPath1202" d="M 0 0L 160 0L 160 70L 0 70Z" class="main-stroke" stroke-width="2" fill="none" />
		<g id="SvgjsG1203"><text id="SvgjsText1204" text-anchor="start" font-size="13px" width="140px" class="main-fill" font-weight="400" align="middle" lineHeight="125%" anchor="start" size="13px" weight="400" font-style="" opacity="1" y="15.875"
				transform="rotate(0)">
				<tspan id="SvgjsTspan1205" dy="16" x="10">
					<tspan id="SvgjsTspan1206" style="text-decoration:;">www.google.com</tspan>
				</tspan>
				<tspan id="SvgjsTspan1207" dy="16" x="10">
					<tspan id="SvgjsTspan1208" style="text-decoration:;">目标端口: </tspan>
					<tspan id="SvgjsTspan1209" style="text-decoration:;font-weight: bold;" class="dst-port">443</tspan>
				</tspan>
			</text></g>
	</g>
	<g id="SvgjsG1210">
		<path id="SvgjsPath1211" d="M776 185L821.25 185L821.25 185L865 185" class="main-stroke" stroke-width="2" fill="none" marker-end="url(#SvgjsMarker1212)" />
	</g>
	<g id="SvgjsG1214">
		<path id="SvgjsPath1215" d="M905 147L905 121L905 121L905 98.6" class="main-stroke" stroke-width="2" fill="none" marker-end="url(#SvgjsMarker1216)" />
	</g>
	<g id="SvgjsG1218">
		<path id="SvgjsPath1219" d="M255 136L255 160L255 160L255 182.4" class="main-stroke" stroke-width="2" fill="none" marker-end="url(#SvgjsMarker1220)" />
	</g>
</svg>